<?xml version="1.0" encoding="UTF-8"?>
<svg width="199px" height="86px" viewBox="0 0 199 86" version="1.1" xmlns="http://www.w3.org/2000/svg" xmlns:xlink="http://www.w3.org/1999/xlink">
    <title>Group 2 Copy</title>
    <g id="Page-1" stroke="none" stroke-width="1" fill="none" fill-rule="evenodd">
        <g id="Core_Demo---styleguide" transform="translate(-518.000000, -413.000000)" fill-rule="nonzero">
            <g id="Group-2-Copy" transform="translate(518.840000, 413.600000)">
                <path d="M91.7420312,17.4390625 L89.7908594,15.4 C90.6619531,15.1890625 91.3435937,14.7076172 91.8357812,13.9556641 C92.3279687,13.2037109 92.5740625,12.2535156 92.5740625,11.1050781 C92.5740625,9.74179687 92.2361719,8.66660156 91.5603906,7.87949219 C90.8846094,7.09238281 89.9490625,6.69882812 88.75375,6.69882812 C87.56625,6.69882812 86.6297266,7.09042969 85.9441797,7.87363281 C85.2586328,8.65683594 84.9158594,9.73007812 84.9158594,11.0933594 C84.9158594,12.4605469 85.2557031,13.5396484 85.9353906,14.3306641 C86.6150781,15.1216797 87.550625,15.5171875 88.7420312,15.5171875 L88.7420312,15.5171875 L88.9236719,15.5171875 L89.1170312,15.5054687 L90.769375,17.4390625 L91.7420312,17.4390625 Z M88.7420312,14.9546875 C87.7185937,14.9546875 86.9334375,14.6197266 86.3865625,13.9498047 C85.8396875,13.2798828 85.56625,12.3316406 85.56625,11.1050781 C85.56625,9.88242187 85.8426172,8.9390625 86.3953516,8.275 C86.9480859,7.6109375 87.7342187,7.27890625 88.75375,7.27890625 C89.7771875,7.27890625 90.5613672,7.60800781 91.1062891,8.26621094 C91.6512109,8.92441406 91.9236719,9.87070312 91.9236719,11.1050781 C91.9236719,12.3433594 91.6512109,13.2945312 91.1062891,13.9585937 C90.5613672,14.6226562 89.7732812,14.9546875 88.7420312,14.9546875 Z M96.4998437,15.5171875 C97.5584375,15.5171875 98.2947656,15.1851562 98.7088281,14.5210937 L98.7088281,14.5210937 L98.7439844,14.5210937 L98.8494531,15.4 L99.3416406,15.4 L99.3416406,9.03085937 L98.7674219,9.03085937 L98.7674219,12.5464844 C98.7674219,13.4097656 98.5887109,14.0328125 98.2312891,14.415625 C97.8738672,14.7984375 97.31625,14.9898437 96.5584375,14.9898437 C95.9920312,14.9898437 95.5740625,14.8443359 95.3045312,14.5533203 C95.035,14.2623047 94.9002344,13.7964844 94.9002344,13.1558594 L94.9002344,13.1558594 L94.9002344,9.03085937 L94.3260156,9.03085937 L94.3260156,13.1910156 C94.3260156,14.7417969 95.050625,15.5171875 96.4998437,15.5171875 Z M101.761562,7.8296875 C101.882656,7.8296875 101.977383,7.77890625 102.045742,7.67734375 C102.114102,7.57578125 102.148281,7.43710937 102.148281,7.26132812 C102.148281,7.08164062 102.114102,6.94296875 102.045742,6.8453125 C101.977383,6.74765625 101.882656,6.69882812 101.761562,6.69882812 C101.515469,6.69882812 101.392422,6.88632812 101.392422,7.26132812 C101.392422,7.64023437 101.515469,7.8296875 101.761562,7.8296875 Z M102.054531,15.4 L102.054531,9.03085937 L101.474453,9.03085937 L101.474453,15.4 L102.054531,15.4 Z M106.730312,15.5171875 C107.390469,15.5171875 107.923672,15.4175781 108.329922,15.2183594 L108.329922,15.2183594 L108.329922,14.6792969 C107.833828,14.8863281 107.296719,14.9898437 106.718594,14.9898437 C105.995937,14.9898437 105.433437,14.7466797 105.031094,14.2603516 C104.62875,13.7740234 104.427578,13.1011719 104.427578,12.2417969 C104.427578,11.3355469 104.62875,10.6412109 105.031094,10.1587891 C105.433437,9.67636719 106.025234,9.43515625 106.806484,9.43515625 C107.212734,9.43515625 107.69125,9.52695312 108.242031,9.71054687 L108.242031,9.71054687 L108.400234,9.19492187 C107.896328,9.00351562 107.368984,8.9078125 106.818203,8.9078125 C105.888516,8.9078125 105.156094,9.20175781 104.620937,9.78964844 C104.085781,10.3775391 103.818203,11.1988281 103.818203,12.2535156 C103.818203,13.2808594 104.076016,14.0816406 104.591641,14.6558594 C105.107266,15.2300781 105.820156,15.5171875 106.730312,15.5171875 Z M110.468594,15.4 L110.468594,13.1324219 L111.511562,12.1832031 L113.931484,15.4 L114.62875,15.4 L111.904141,11.7496094 L114.411953,9.03085937 L113.708828,9.03085937 L110.456875,12.6050781 L110.427578,12.6050781 L110.468594,10.853125 L110.468594,6.2828125 L109.888516,6.2828125 L109.888516,15.4 L110.468594,15.4 Z M119.556484,15.4 L119.556484,11.6675781 L121.683437,11.6675781 L123.892422,15.4 L124.607266,15.4 L122.281094,11.4976562 C122.898281,11.3257812 123.358242,11.0425781 123.660977,10.6480469 C123.963711,10.2535156 124.115078,9.76914062 124.115078,9.19492187 C124.115078,8.40585937 123.861172,7.81503906 123.353359,7.42246094 C122.845547,7.02988281 122.060391,6.83359375 120.997891,6.83359375 L120.997891,6.83359375 L118.958828,6.83359375 L118.958828,15.4 L119.556484,15.4 Z M121.19125,11.1519531 L119.556484,11.1519531 L119.556484,7.37265625 L120.974453,7.37265625 C121.857266,7.37265625 122.493984,7.52109375 122.884609,7.81796875 C123.275234,8.11484375 123.470547,8.58945312 123.470547,9.24179687 C123.470547,9.87070312 123.271328,10.3462891 122.872891,10.6685547 C122.474453,10.9908203 121.913906,11.1519531 121.19125,11.1519531 L121.19125,11.1519531 Z M128.515469,15.5171875 C128.882656,15.5171875 129.218594,15.4888672 129.523281,15.4322266 C129.827969,15.3755859 130.16,15.2691406 130.519375,15.1128906 L130.519375,15.1128906 L130.519375,14.5855469 C130.0975,14.7535156 129.748867,14.8628906 129.473477,14.9136719 C129.198086,14.9644531 128.87875,14.9898437 128.515469,14.9898437 C127.769375,14.9898437 127.196133,14.759375 126.795742,14.2984375 C126.395352,13.8375 126.19125,13.1695312 126.183437,12.2945312 L126.183437,12.2945312 L130.771328,12.2945312 L130.771328,11.8257812 C130.771328,10.9273437 130.554531,10.2164062 130.120937,9.69296875 C129.687344,9.16953125 129.095547,8.9078125 128.345547,8.9078125 C127.497891,8.9078125 126.824062,9.21347656 126.324062,9.82480469 C125.824062,10.4361328 125.574062,11.2496094 125.574062,12.2652344 C125.574062,13.2925781 125.832852,14.0914062 126.35043,14.6617187 C126.868008,15.2320312 127.589687,15.5171875 128.515469,15.5171875 Z M130.156094,11.7789062 L126.218594,11.7789062 C126.281094,11.0171875 126.497891,10.4341797 126.868984,10.0298828 C127.240078,9.62558594 127.732266,9.4234375 128.345547,9.4234375 C128.911953,9.4234375 129.355312,9.63144531 129.675625,10.0474609 C129.995937,10.4634766 130.156094,11.040625 130.156094,11.7789062 L130.156094,11.7789062 Z M133.982266,15.5171875 C134.779141,15.5171875 135.394375,15.3638672 135.827969,15.0572266 C136.261562,14.7505859 136.478359,14.3121094 136.478359,13.7417969 C136.478359,13.4566406 136.41293,13.2085937 136.28207,12.9976562 C136.151211,12.7867187 135.954922,12.5982422 135.693203,12.4322266 C135.431484,12.2662109 135.013516,12.0796875 134.439297,11.8726562 C133.751797,11.6265625 133.289883,11.4039062 133.053555,11.2046875 C132.817227,11.0054687 132.699062,10.7398437 132.699062,10.4078125 C132.699062,10.103125 132.851406,9.86484375 133.156094,9.69296875 C133.460781,9.52109375 133.872891,9.43515625 134.392422,9.43515625 C134.927578,9.43515625 135.507656,9.5640625 136.132656,9.821875 L136.132656,9.821875 L136.349453,9.29453125 C135.732266,9.03671875 135.079922,8.9078125 134.392422,8.9078125 C133.673672,8.9078125 133.114102,9.04648437 132.713711,9.32382812 C132.31332,9.60117187 132.113125,9.978125 132.113125,10.4546875 C132.113125,10.7554687 132.178555,11.0103516 132.309414,11.2193359 C132.440273,11.4283203 132.634609,11.6158203 132.892422,11.7818359 C133.150234,11.9478516 133.5975,12.1460937 134.234219,12.3765625 C134.827969,12.5875 135.254727,12.8023437 135.514492,13.0210937 C135.774258,13.2398437 135.904141,13.509375 135.904141,13.8296875 C135.904141,14.1773437 135.741055,14.4556641 135.414883,14.6646484 C135.088711,14.8736328 134.611172,14.978125 133.982266,14.978125 C133.271328,14.978125 132.595547,14.8179687 131.954922,14.4976562 L131.954922,14.4976562 L131.954922,15.1246094 C132.454922,15.3863281 133.130703,15.5171875 133.982266,15.5171875 Z M138.699062,18.2828125 L138.699062,15.8570312 C138.699062,15.5132812 138.69125,15.196875 138.675625,14.9078125 L138.675625,14.9078125 L138.658047,14.415625 L138.699062,14.415625 C139.148281,15.15 139.863125,15.5171875 140.843594,15.5171875 C141.663906,15.5171875 142.311367,15.2291016 142.785977,14.6529297 C143.260586,14.0767578 143.497891,13.2652344 143.497891,12.2183594 C143.497891,11.1402344 143.272305,10.3189453 142.821133,9.75449219 C142.369961,9.19003906 141.714687,8.9078125 140.855312,8.9078125 C139.894375,8.9078125 139.195156,9.2515625 138.757656,9.9390625 L138.757656,9.9390625 L138.7225,9.9390625 L138.611172,9.03085937 L138.118984,9.03085937 L138.118984,18.2828125 L138.699062,18.2828125 Z M140.831875,15.0015625 C140.077969,15.0015625 139.534023,14.7886719 139.200039,14.3628906 C138.866055,13.9371094 138.699062,13.2261719 138.699062,12.2300781 L138.699062,12.2300781 L138.699062,12.0425781 C138.699062,11.1207031 138.872891,10.4556641 139.220547,10.0474609 C139.568203,9.63925781 140.113125,9.43515625 140.855312,9.43515625 C142.206875,9.43515625 142.882656,10.3707031 142.882656,12.2417969 C142.882656,13.1128906 142.703945,13.790625 142.346523,14.275 C141.989102,14.759375 141.484219,15.0015625 140.831875,15.0015625 Z M147.687344,15.5171875 C148.574062,15.5171875 149.269375,15.2251953 149.773281,14.6412109 C150.277187,14.0572266 150.529141,13.2457031 150.529141,12.2066406 C150.529141,11.1832031 150.280117,10.3775391 149.78207,9.78964844 C149.284023,9.20175781 148.5975,8.9078125 147.7225,8.9078125 C146.843594,8.9078125 146.152187,9.19785156 145.648281,9.77792969 C145.144375,10.3580078 144.892422,11.1675781 144.892422,12.2066406 C144.892422,12.8667969 145.005703,13.4488281 145.232266,13.9527344 C145.458828,14.4566406 145.785,14.8433594 146.210781,15.1128906 C146.636562,15.3824219 147.12875,15.5171875 147.687344,15.5171875 Z M147.710781,14.9898437 C147.007656,14.9898437 146.463711,14.7447266 146.078945,14.2544922 C145.69418,13.7642578 145.501797,13.0816406 145.501797,12.2066406 C145.501797,11.3238281 145.692227,10.6412109 146.073086,10.1587891 C146.453945,9.67636719 146.995937,9.43515625 147.699062,9.43515625 C148.402187,9.43515625 148.948086,9.67734375 149.336758,10.1617187 C149.72543,10.6460937 149.919766,11.3277344 149.919766,12.2066406 C149.919766,13.0816406 149.727383,13.7642578 149.342617,14.2544922 C148.957852,14.7447266 148.413906,14.9898437 147.710781,14.9898437 Z M152.872891,15.4 L152.872891,11.884375 C152.872891,11.0210937 153.049648,10.3970703 153.403164,10.0123047 C153.75668,9.62753906 154.314297,9.43515625 155.076016,9.43515625 C155.642422,9.43515625 156.060391,9.58066406 156.329922,9.87167969 C156.599453,10.1626953 156.734219,10.6285156 156.734219,11.2691406 L156.734219,11.2691406 L156.734219,15.4 L157.308437,15.4 L157.308437,11.2339844 C157.308437,9.68320312 156.585781,8.9078125 155.140469,8.9078125 C154.081875,8.9078125 153.345547,9.23984375 152.931484,9.90390625 L152.931484,9.90390625 L152.896328,9.90390625 L152.785,9.03085937 L152.292812,9.03085937 L152.292812,15.4 L152.872891,15.4 Z M160.824062,15.5171875 C161.620937,15.5171875 162.236172,15.3638672 162.669766,15.0572266 C163.103359,14.7505859 163.320156,14.3121094 163.320156,13.7417969 C163.320156,13.4566406 163.254727,13.2085937 163.123867,12.9976562 C162.993008,12.7867187 162.796719,12.5982422 162.535,12.4322266 C162.273281,12.2662109 161.855312,12.0796875 161.281094,11.8726562 C160.593594,11.6265625 160.13168,11.4039062 159.895352,11.2046875 C159.659023,11.0054687 159.540859,10.7398437 159.540859,10.4078125 C159.540859,10.103125 159.693203,9.86484375 159.997891,9.69296875 C160.302578,9.52109375 160.714687,9.43515625 161.234219,9.43515625 C161.769375,9.43515625 162.349453,9.5640625 162.974453,9.821875 L162.974453,9.821875 L163.19125,9.29453125 C162.574062,9.03671875 161.921719,8.9078125 161.234219,8.9078125 C160.515469,8.9078125 159.955898,9.04648437 159.555508,9.32382812 C159.155117,9.60117187 158.954922,9.978125 158.954922,10.4546875 C158.954922,10.7554687 159.020352,11.0103516 159.151211,11.2193359 C159.28207,11.4283203 159.476406,11.6158203 159.734219,11.7818359 C159.992031,11.9478516 160.439297,12.1460937 161.076016,12.3765625 C161.669766,12.5875 162.096523,12.8023437 162.356289,13.0210937 C162.616055,13.2398437 162.745937,13.509375 162.745937,13.8296875 C162.745937,14.1773437 162.582852,14.4556641 162.25668,14.6646484 C161.930508,14.8736328 161.452969,14.978125 160.824062,14.978125 C160.113125,14.978125 159.437344,14.8179687 158.796719,14.4976562 L158.796719,14.4976562 L158.796719,15.1246094 C159.296719,15.3863281 159.9725,15.5171875 160.824062,15.5171875 Z M167.533047,15.5171875 C167.900234,15.5171875 168.236172,15.4888672 168.540859,15.4322266 C168.845547,15.3755859 169.177578,15.2691406 169.536953,15.1128906 L169.536953,15.1128906 L169.536953,14.5855469 C169.115078,14.7535156 168.766445,14.8628906 168.491055,14.9136719 C168.215664,14.9644531 167.896328,14.9898437 167.533047,14.9898437 C166.786953,14.9898437 166.213711,14.759375 165.81332,14.2984375 C165.41293,13.8375 165.208828,13.1695312 165.201016,12.2945312 L165.201016,12.2945312 L169.788906,12.2945312 L169.788906,11.8257812 C169.788906,10.9273437 169.572109,10.2164062 169.138516,9.69296875 C168.704922,9.16953125 168.113125,8.9078125 167.363125,8.9078125 C166.515469,8.9078125 165.841641,9.21347656 165.341641,9.82480469 C164.841641,10.4361328 164.591641,11.2496094 164.591641,12.2652344 C164.591641,13.2925781 164.85043,14.0914062 165.368008,14.6617187 C165.885586,15.2320312 166.607266,15.5171875 167.533047,15.5171875 Z M169.173672,11.7789062 L165.236172,11.7789062 C165.298672,11.0171875 165.515469,10.4341797 165.886562,10.0298828 C166.257656,9.62558594 166.749844,9.4234375 167.363125,9.4234375 C167.929531,9.4234375 168.372891,9.63144531 168.693203,10.0474609 C169.013516,10.4634766 169.173672,11.040625 169.173672,11.7789062 L169.173672,11.7789062 Z M87.2185937,32.5171875 C88.0896875,32.5171875 88.7879297,32.3082031 89.3133203,31.8902344 C89.8387109,31.4722656 90.1014062,30.9058594 90.1014062,30.1910156 C90.1014062,29.8003906 90.0242578,29.4673828 89.8699609,29.1919922 C89.7156641,28.9166016 89.4705469,28.6705078 89.1346094,28.4537109 C88.7986719,28.2369141 88.2967187,28.0132812 87.62875,27.7828125 C86.9920312,27.55625 86.5428125,27.3619141 86.2810937,27.1998047 C86.019375,27.0376953 85.8308984,26.8550781 85.7156641,26.6519531 C85.6004297,26.4488281 85.5428125,26.1890625 85.5428125,25.8726562 C85.5428125,25.36875 85.7303125,24.9703125 86.1053125,24.6773437 C86.4803125,24.384375 86.9842187,24.2378906 87.6170312,24.2378906 C88.2654687,24.2378906 88.9451562,24.3863281 89.6560937,24.6832031 L89.6560937,24.6832031 L89.8728906,24.1675781 C89.1658594,23.8628906 88.41,23.7105469 87.6053125,23.7105469 C86.81625,23.7105469 86.1707422,23.9126953 85.6687891,24.3169922 C85.1668359,24.7212891 84.9158594,25.24375 84.9158594,25.884375 C84.9158594,26.4664062 85.0828516,26.9322266 85.4168359,27.2818359 C85.7508203,27.6314453 86.3553125,27.9566406 87.2303125,28.2574219 C87.8279687,28.4605469 88.2810937,28.65 88.5896875,28.8257812 C88.8982812,29.0015625 89.1209375,29.1958984 89.2576562,29.4087891 C89.394375,29.6216797 89.4627344,29.8902344 89.4627344,30.2144531 C89.4627344,30.7378906 89.2566797,31.1607422 88.8445703,31.4830078 C88.4324609,31.8052734 87.8748437,31.9664062 87.1717187,31.9664062 C86.2146875,31.9664062 85.4275781,31.8355469 84.8103906,31.5738281 L84.8103906,31.5738281 L84.8103906,32.1714844 C85.3689844,32.4019531 86.1717187,32.5171875 87.2185937,32.5171875 Z M94.3377344,32.5171875 C94.7049219,32.5171875 95.0408594,32.4888672 95.3455469,32.4322266 C95.6502344,32.3755859 95.9822656,32.2691406 96.3416406,32.1128906 L96.3416406,32.1128906 L96.3416406,31.5855469 C95.9197656,31.7535156 95.5711328,31.8628906 95.2957422,31.9136719 C95.0203516,31.9644531 94.7010156,31.9898437 94.3377344,31.9898437 C93.5916406,31.9898437 93.0183984,31.759375 92.6180078,31.2984375 C92.2176172,30.8375 92.0135156,30.1695312 92.0057031,29.2945312 L92.0057031,29.2945312 L96.5935937,29.2945312 L96.5935937,28.8257812 C96.5935937,27.9273437 96.3767969,27.2164062 95.9432031,26.6929687 C95.5096094,26.1695312 94.9178125,25.9078125 94.1678125,25.9078125 C93.3201562,25.9078125 92.6463281,26.2134766 92.1463281,26.8248047 C91.6463281,27.4361328 91.3963281,28.2496094 91.3963281,29.2652344 C91.3963281,30.2925781 91.6551172,31.0914062 92.1726953,31.6617187 C92.6902734,32.2320312 93.4119531,32.5171875 94.3377344,32.5171875 Z M95.9783594,28.7789062 L92.0408594,28.7789062 C92.1033594,28.0171875 92.3201562,27.4341797 92.69125,27.0298828 C93.0623437,26.6255859 93.5545312,26.4234375 94.1678125,26.4234375 C94.7342187,26.4234375 95.1775781,26.6314453 95.4978906,27.0474609 C95.8182031,27.4634766 95.9783594,28.040625 95.9783594,28.7789062 L95.9783594,28.7789062 Z M98.9314844,32.4 L98.9314844,28.884375 C98.9314844,28.18125 99.1053125,27.5992187 99.4529687,27.1382812 C99.800625,26.6773437 100.245937,26.446875 100.788906,26.446875 C101.074062,26.446875 101.349453,26.4800781 101.615078,26.5464844 L101.615078,26.5464844 L101.726406,25.9898437 C101.417812,25.9351562 101.12875,25.9078125 100.859219,25.9078125 C100.437344,25.9078125 100.077969,26.0025391 99.7810937,26.1919922 C99.4842187,26.3814453 99.2049219,26.7105469 98.9432031,27.1792969 L98.9432031,27.1792969 L98.9021875,27.1792969 L98.8435937,26.0308594 L98.3514062,26.0308594 L98.3514062,32.4 L98.9314844,32.4 Z M105.001797,32.4 L107.462734,26.0308594 L106.865078,26.0308594 L105.218594,30.3492187 C105.050625,30.7945312 104.886562,31.2828125 104.726406,31.8140625 L104.726406,31.8140625 L104.69125,31.8140625 C104.581875,31.4 104.417812,30.915625 104.199062,30.3609375 L104.199062,30.3609375 L102.552578,26.0308594 L101.954922,26.0308594 L104.415859,32.4 L105.001797,32.4 Z M108.81625,24.8296875 C108.937344,24.8296875 109.03207,24.7789062 109.10043,24.6773437 C109.168789,24.5757812 109.202969,24.4371094 109.202969,24.2613281 C109.202969,24.0816406 109.168789,23.9429687 109.10043,23.8453125 C109.03207,23.7476562 108.937344,23.6988281 108.81625,23.6988281 C108.570156,23.6988281 108.447109,23.8863281 108.447109,24.2613281 C108.447109,24.6402344 108.570156,24.8296875 108.81625,24.8296875 Z M109.109219,32.4 L109.109219,26.0308594 L108.529141,26.0308594 L108.529141,32.4 L109.109219,32.4 Z M113.785,32.5171875 C114.445156,32.5171875 114.978359,32.4175781 115.384609,32.2183594 L115.384609,32.2183594 L115.384609,31.6792969 C114.888516,31.8863281 114.351406,31.9898437 113.773281,31.9898437 C113.050625,31.9898437 112.488125,31.7466797 112.085781,31.2603516 C111.683437,30.7740234 111.482266,30.1011719 111.482266,29.2417969 C111.482266,28.3355469 111.683437,27.6412109 112.085781,27.1587891 C112.488125,26.6763672 113.079922,26.4351562 113.861172,26.4351562 C114.267422,26.4351562 114.745937,26.5269531 115.296719,26.7105469 L115.296719,26.7105469 L115.454922,26.1949219 C114.951016,26.0035156 114.423672,25.9078125 113.872891,25.9078125 C112.943203,25.9078125 112.210781,26.2017578 111.675625,26.7896484 C111.140469,27.3775391 110.872891,28.1988281 110.872891,29.2535156 C110.872891,30.2808594 111.130703,31.0816406 111.646328,31.6558594 C112.161953,32.2300781 112.874844,32.5171875 113.785,32.5171875 Z M119.515469,32.5171875 C119.882656,32.5171875 120.218594,32.4888672 120.523281,32.4322266 C120.827969,32.3755859 121.16,32.2691406 121.519375,32.1128906 L121.519375,32.1128906 L121.519375,31.5855469 C121.0975,31.7535156 120.748867,31.8628906 120.473477,31.9136719 C120.198086,31.9644531 119.87875,31.9898437 119.515469,31.9898437 C118.769375,31.9898437 118.196133,31.759375 117.795742,31.2984375 C117.395352,30.8375 117.19125,30.1695312 117.183437,29.2945312 L117.183437,29.2945312 L121.771328,29.2945312 L121.771328,28.8257812 C121.771328,27.9273437 121.554531,27.2164062 121.120937,26.6929687 C120.687344,26.1695312 120.095547,25.9078125 119.345547,25.9078125 C118.497891,25.9078125 117.824062,26.2134766 117.324062,26.8248047 C116.824062,27.4361328 116.574062,28.2496094 116.574062,29.2652344 C116.574062,30.2925781 116.832852,31.0914062 117.35043,31.6617187 C117.868008,32.2320312 118.589687,32.5171875 119.515469,32.5171875 Z M121.156094,28.7789062 L117.218594,28.7789062 C117.281094,28.0171875 117.497891,27.4341797 117.868984,27.0298828 C118.240078,26.6255859 118.732266,26.4234375 119.345547,26.4234375 C119.911953,26.4234375 120.355312,26.6314453 120.675625,27.0474609 C120.995937,27.4634766 121.156094,28.040625 121.156094,28.7789062 L121.156094,28.7789062 Z M127.367031,32.4 L127.367031,25.978125 C127.367031,25.4703125 127.351406,24.9742187 127.320156,24.4898437 L127.320156,24.4898437 L127.367031,24.4898437 L130.560391,32.4 L130.94125,32.4 L134.146328,24.5015625 L134.193203,24.5015625 C134.146328,24.9859375 134.122891,25.4546875 134.122891,25.9078125 L134.122891,25.9078125 L134.122891,32.4 L134.726406,32.4 L134.726406,23.8335937 L133.824062,23.8335937 L130.788906,31.36875 L130.75375,31.36875 L127.718594,23.8335937 L126.792812,23.8335937 L126.792812,32.4 L127.367031,32.4 Z M138.488125,32.5171875 C138.949062,32.5171875 139.348477,32.4322266 139.686367,32.2623047 C140.024258,32.0923828 140.353359,31.8023437 140.673672,31.3921875 L140.673672,31.3921875 L140.720547,31.3921875 L140.867031,32.4 L141.294766,32.4 L141.294766,28.1636719 C141.294766,27.3941406 141.121914,26.8277344 140.776211,26.4644531 C140.430508,26.1011719 139.908047,25.9195312 139.208828,25.9195312 C138.525234,25.9195312 137.833828,26.0835937 137.134609,26.4117187 L137.134609,26.4117187 L137.351406,26.915625 C137.984219,26.5875 138.595547,26.4234375 139.185391,26.4234375 C139.732266,26.4234375 140.12875,26.5777344 140.374844,26.8863281 C140.620937,27.1949219 140.743984,27.6519531 140.743984,28.2574219 L140.743984,28.2574219 L140.743984,28.6792969 L139.531094,28.7144531 C138.550625,28.7339844 137.801602,28.915625 137.284023,29.259375 C136.766445,29.603125 136.507656,30.0855469 136.507656,30.7066406 C136.507656,31.2730469 136.681484,31.7164062 137.029141,32.0367187 C137.376797,32.3570312 137.863125,32.5171875 138.488125,32.5171875 Z M138.523281,31.9898437 C138.077969,31.9898437 137.733242,31.8794922 137.489102,31.6587891 C137.244961,31.4380859 137.122891,31.1285156 137.122891,30.7300781 C137.122891,30.2300781 137.31332,29.8619141 137.69418,29.6255859 C138.075039,29.3892578 138.712734,29.2496094 139.607266,29.2066406 L139.607266,29.2066406 L140.720547,29.1597656 L140.720547,29.7867187 C140.720547,30.478125 140.524258,31.0181641 140.13168,31.4068359 C139.739102,31.7955078 139.202969,31.9898437 138.523281,31.9898437 Z M143.937344,32.4 L143.937344,28.884375 C143.937344,28.0210937 144.114102,27.3970703 144.467617,27.0123047 C144.821133,26.6275391 145.37875,26.4351562 146.140469,26.4351562 C146.706875,26.4351562 147.124844,26.5806641 147.394375,26.8716797 C147.663906,27.1626953 147.798672,27.6285156 147.798672,28.2691406 L147.798672,28.2691406 L147.798672,32.4 L148.372891,32.4 L148.372891,28.2339844 C148.372891,26.6832031 147.650234,25.9078125 146.204922,25.9078125 C145.146328,25.9078125 144.41,26.2398437 143.995937,26.9039062 L143.995937,26.9039062 L143.960781,26.9039062 L143.849453,26.0308594 L143.357266,26.0308594 L143.357266,32.4 L143.937344,32.4 Z M151.923672,32.5171875 C152.384609,32.5171875 152.784023,32.4322266 153.121914,32.2623047 C153.459805,32.0923828 153.788906,31.8023437 154.109219,31.3921875 L154.109219,31.3921875 L154.156094,31.3921875 L154.302578,32.4 L154.730312,32.4 L154.730312,28.1636719 C154.730312,27.3941406 154.557461,26.8277344 154.211758,26.4644531 C153.866055,26.1011719 153.343594,25.9195312 152.644375,25.9195312 C151.960781,25.9195312 151.269375,26.0835937 150.570156,26.4117187 L150.570156,26.4117187 L150.786953,26.915625 C151.419766,26.5875 152.031094,26.4234375 152.620937,26.4234375 C153.167812,26.4234375 153.564297,26.5777344 153.810391,26.8863281 C154.056484,27.1949219 154.179531,27.6519531 154.179531,28.2574219 L154.179531,28.2574219 L154.179531,28.6792969 L152.966641,28.7144531 C151.986172,28.7339844 151.237148,28.915625 150.71957,29.259375 C150.201992,29.603125 149.943203,30.0855469 149.943203,30.7066406 C149.943203,31.2730469 150.117031,31.7164062 150.464687,32.0367187 C150.812344,32.3570312 151.298672,32.5171875 151.923672,32.5171875 Z M151.958828,31.9898437 C151.513516,31.9898437 151.168789,31.8794922 150.924648,31.6587891 C150.680508,31.4380859 150.558437,31.1285156 150.558437,30.7300781 C150.558437,30.2300781 150.748867,29.8619141 151.129727,29.6255859 C151.510586,29.3892578 152.148281,29.2496094 153.042812,29.2066406 L153.042812,29.2066406 L154.156094,29.1597656 L154.156094,29.7867187 C154.156094,30.478125 153.959805,31.0181641 153.567227,31.4068359 C153.174648,31.7955078 152.638516,31.9898437 151.958828,31.9898437 Z M158.509609,35.2828125 C159.517422,35.2828125 160.293789,35.1001953 160.838711,34.7349609 C161.383633,34.3697266 161.656094,33.8511719 161.656094,33.1792969 C161.656094,32.6324219 161.4725,32.2193359 161.105312,31.9400391 C160.738125,31.6607422 160.208828,31.5210937 159.517422,31.5210937 L159.517422,31.5210937 L158.404141,31.5210937 C158.040859,31.5210937 157.78207,31.4742187 157.627773,31.3804687 C157.473477,31.2867187 157.396328,31.1382812 157.396328,30.9351562 C157.396328,30.7515625 157.456875,30.5777344 157.577969,30.4136719 C157.699062,30.2496094 157.874844,30.1070312 158.105312,29.9859375 C158.2225,30.009375 158.425625,30.0210937 158.714687,30.0210937 C159.402187,30.0210937 159.950039,29.8306641 160.358242,29.4498047 C160.766445,29.0689453 160.970547,28.571875 160.970547,27.9585937 C160.970547,27.4351562 160.794766,26.9546875 160.443203,26.5171875 L160.443203,26.5171875 L161.761562,26.4351562 L161.761562,26.0308594 L159.7225,26.0308594 C159.492031,25.9488281 159.167812,25.9078125 158.749844,25.9078125 C158.062344,25.9078125 157.516445,26.1001953 157.112148,26.4849609 C156.707852,26.8697266 156.505703,27.3804687 156.505703,28.0171875 C156.505703,28.4390625 156.609219,28.8130859 156.81625,29.1392578 C157.023281,29.4654297 157.312344,29.7046875 157.683437,29.8570312 C157.140469,30.18125 156.868984,30.55625 156.868984,30.9820312 C156.868984,31.1773437 156.926602,31.3501953 157.041836,31.5005859 C157.15707,31.6509766 157.310391,31.7671875 157.501797,31.8492187 C157.036953,31.9546875 156.668789,32.1519531 156.397305,32.4410156 C156.12582,32.7300781 155.990078,33.0933594 155.990078,33.5308594 C155.990078,34.0816406 156.209805,34.5113281 156.649258,34.8199219 C157.088711,35.1285156 157.708828,35.2828125 158.509609,35.2828125 Z M158.738125,29.5699219 C158.238125,29.5699219 157.838711,29.4341797 157.539883,29.1626953 C157.241055,28.8912109 157.091641,28.509375 157.091641,28.0171875 C157.091641,27.4976562 157.237148,27.0923828 157.528164,26.8013672 C157.81918,26.5103516 158.218594,26.3648437 158.726406,26.3648437 C159.249844,26.3648437 159.65707,26.5005859 159.948086,26.7720703 C160.239102,27.0435547 160.384609,27.4507812 160.384609,27.99375 C160.384609,28.5054687 160.243008,28.8960937 159.959805,29.165625 C159.676602,29.4351562 159.269375,29.5699219 158.738125,29.5699219 Z M158.556484,34.790625 C157.255703,34.790625 156.605312,34.353125 156.605312,33.478125 C156.605312,32.5601562 157.189297,32.1011719 158.357266,32.1011719 L158.357266,32.1011719 L159.400234,32.1011719 C159.986172,32.1011719 160.41,32.1871094 160.671719,32.3589844 C160.933437,32.5308594 161.064297,32.8082031 161.064297,33.1910156 C161.064297,34.2574219 160.228359,34.790625 158.556484,34.790625 Z M165.640469,32.5171875 C166.007656,32.5171875 166.343594,32.4888672 166.648281,32.4322266 C166.952969,32.3755859 167.285,32.2691406 167.644375,32.1128906 L167.644375,32.1128906 L167.644375,31.5855469 C167.2225,31.7535156 166.873867,31.8628906 166.598477,31.9136719 C166.323086,31.9644531 166.00375,31.9898437 165.640469,31.9898437 C164.894375,31.9898437 164.321133,31.759375 163.920742,31.2984375 C163.520352,30.8375 163.31625,30.1695312 163.308437,29.2945312 L163.308437,29.2945312 L167.896328,29.2945312 L167.896328,28.8257812 C167.896328,27.9273437 167.679531,27.2164062 167.245937,26.6929687 C166.812344,26.1695312 166.220547,25.9078125 165.470547,25.9078125 C164.622891,25.9078125 163.949062,26.2134766 163.449062,26.8248047 C162.949062,27.4361328 162.699062,28.2496094 162.699062,29.2652344 C162.699062,30.2925781 162.957852,31.0914062 163.47543,31.6617187 C163.993008,32.2320312 164.714687,32.5171875 165.640469,32.5171875 Z M167.281094,28.7789062 L163.343594,28.7789062 C163.406094,28.0171875 163.622891,27.4341797 163.993984,27.0298828 C164.365078,26.6255859 164.857266,26.4234375 165.470547,26.4234375 C166.036953,26.4234375 166.480312,26.6314453 166.800625,27.0474609 C167.120937,27.4634766 167.281094,28.040625 167.281094,28.7789062 L167.281094,28.7789062 Z M170.234219,32.4 L170.234219,28.884375 C170.234219,28.0289062 170.386562,27.4068359 170.69125,27.0181641 C170.995937,26.6294922 171.482266,26.4351562 172.150234,26.4351562 C173.134609,26.4351562 173.626797,26.9722656 173.626797,28.0464844 L173.626797,28.0464844 L173.626797,32.4 L174.218594,32.4 L174.218594,28.6675781 C174.218594,27.8980469 174.374844,27.3335937 174.687344,26.9742187 C174.999844,26.6148437 175.482266,26.4351562 176.134609,26.4351562 C176.634609,26.4351562 177.005703,26.5777344 177.247891,26.8628906 C177.490078,27.1480469 177.611172,27.6011719 177.611172,28.2222656 L177.611172,28.2222656 L177.611172,32.4 L178.185391,32.4 L178.185391,28.2339844 C178.185391,27.4253906 178.011562,26.8355469 177.663906,26.4644531 C177.31625,26.0933594 176.794766,25.9078125 176.099453,25.9078125 C175.654141,25.9078125 175.25668,26.0054687 174.90707,26.2007812 C174.557461,26.3960937 174.279141,26.6753906 174.072109,27.0386719 L174.072109,27.0386719 L174.048672,27.0386719 C173.763516,26.2847656 173.118984,25.9078125 172.115078,25.9078125 C171.724453,25.9078125 171.367031,25.9947266 171.042812,26.1685547 C170.718594,26.3423828 170.468594,26.5875 170.292812,26.9039062 L170.292812,26.9039062 L170.257656,26.9039062 L170.134609,26.0308594 L169.654141,26.0308594 L169.654141,32.4 L170.234219,32.4 Z M182.820156,32.5171875 C183.187344,32.5171875 183.523281,32.4888672 183.827969,32.4322266 C184.132656,32.3755859 184.464687,32.2691406 184.824062,32.1128906 L184.824062,32.1128906 L184.824062,31.5855469 C184.402187,31.7535156 184.053555,31.8628906 183.778164,31.9136719 C183.502773,31.9644531 183.183437,31.9898437 182.820156,31.9898437 C182.074062,31.9898437 181.50082,31.759375 181.10043,31.2984375 C180.700039,30.8375 180.495937,30.1695312 180.488125,29.2945312 L180.488125,29.2945312 L185.076016,29.2945312 L185.076016,28.8257812 C185.076016,27.9273437 184.859219,27.2164062 184.425625,26.6929687 C183.992031,26.1695312 183.400234,25.9078125 182.650234,25.9078125 C181.802578,25.9078125 181.12875,26.2134766 180.62875,26.8248047 C180.12875,27.4361328 179.87875,28.2496094 179.87875,29.2652344 C179.87875,30.2925781 180.137539,31.0914062 180.655117,31.6617187 C181.172695,32.2320312 181.894375,32.5171875 182.820156,32.5171875 Z M184.460781,28.7789062 L180.523281,28.7789062 C180.585781,28.0171875 180.802578,27.4341797 181.173672,27.0298828 C181.544766,26.6255859 182.036953,26.4234375 182.650234,26.4234375 C183.216641,26.4234375 183.66,26.6314453 183.980312,27.0474609 C184.300625,27.4634766 184.460781,28.040625 184.460781,28.7789062 L184.460781,28.7789062 Z M187.413906,32.4 L187.413906,28.884375 C187.413906,28.0210937 187.590664,27.3970703 187.94418,27.0123047 C188.297695,26.6275391 188.855312,26.4351562 189.617031,26.4351562 C190.183437,26.4351562 190.601406,26.5806641 190.870937,26.8716797 C191.140469,27.1626953 191.275234,27.6285156 191.275234,28.2691406 L191.275234,28.2691406 L191.275234,32.4 L191.849453,32.4 L191.849453,28.2339844 C191.849453,26.6832031 191.126797,25.9078125 189.681484,25.9078125 C188.622891,25.9078125 187.886562,26.2398437 187.4725,26.9039062 L187.4725,26.9039062 L187.437344,26.9039062 L187.326016,26.0308594 L186.833828,26.0308594 L186.833828,32.4 L187.413906,32.4 Z M195.581875,32.5171875 C195.949062,32.5171875 196.273281,32.4703125 196.554531,32.3765625 L196.554531,32.3765625 L196.554531,31.9078125 C196.281094,31.9703125 195.960781,32.0015625 195.593594,32.0015625 C195.226406,32.0015625 194.956875,31.884375 194.785,31.65 C194.613125,31.415625 194.527187,31.0542969 194.527187,30.5660156 L194.527187,30.5660156 L194.527187,26.5347656 L196.396328,26.5347656 L196.396328,26.0308594 L194.527187,26.0308594 L194.527187,24.4898437 L194.228359,24.4898437 L193.935391,25.93125 L192.992031,26.1949219 L192.992031,26.5347656 L193.935391,26.5347656 L193.935391,30.6480469 C193.935391,31.2925781 194.06918,31.7652344 194.336758,32.0660156 C194.604336,32.3667969 195.019375,32.5171875 195.581875,32.5171875 Z" id="QuickResponseServiceManagement" fill="#000000"></path>
                <g id="Group-3">
                    <path d="M22.38,45 C25.5,45 28.5,44.34 31.14,43.26 L24.54,34.56 C23.88,34.74 23.1,34.86 22.38,34.86 C15.54,34.86 10.32,29.28 10.32,22.5 C10.32,15.72 15.54,10.14 22.38,10.14 C29.28,10.14 34.56,15.72 34.56,22.5 C34.56,24.54 34.08,26.46 33.24,28.14 L28.5,21.96 L16.8,21.96 L34.02,44.4 L45.84,44.4 L39.84,36.66 C42.96,32.82 44.82,27.9 44.82,22.5 C44.82,10.08 34.86,0 22.38,0 C9.9,0 0,10.08 0,22.5 C0,34.98 9.9,45 22.38,45 Z" id="Path" fill="#EEB18A"></path>
                    <path d="M61.98,0.6 C72.54,0.6 78.48,7.38 78.48,15.66 C78.48,21.3 75.96,26.52 70.62,28.98 L70.62,28.98 L79.74,44.4 L67.92,44.4 L57.6,25.56 L57.6,44.4 L47.16,44.4 L47.16,0.6 Z M61.2,10.2 L57.6,10.2 L57.6,21.72 L61.2,21.72 C65.64,21.72 67.86,18.84 67.86,15.78 C67.86,12.18 65.58,10.2 61.2,10.2 L61.2,10.2 Z" id="Combined-Shape" fill="#EEB18A"></path>
                    <path d="M47.38,40 C59.86,40 69.82,50.08 69.82,62.5 C69.82,74.98 59.98,85 47.38,85 C34.9,85 25,74.98 25,62.5 C25,50.08 34.9,40 47.38,40 Z M47.38,50.26 C40.6,50.26 35.56,55.78 35.56,62.5 C35.56,69.16 40.54,74.68 47.38,74.68 C54.28,74.68 59.32,69.16 59.32,62.5 C59.32,55.78 54.16,50.26 47.38,50.26 Z" id="Combined-Shape" fill="#000000"></path>
                    <polygon id="Path" fill="#000000" points="76.6 84.4 76.6 58.18 93.16 84.4 103.54 84.4 103.54 40.6 93.16 40.6 93.16 65.56 77.32 40.6 66.16 40.6 66.16 84.4"></polygon>
                </g>
            </g>
        </g>
    </g>
</svg>