<?xml version="1.0" encoding="UTF-8"?>
<svg width="105px" height="86px" viewBox="0 0 105 86" version="1.1" xmlns="http://www.w3.org/2000/svg" xmlns:xlink="http://www.w3.org/1999/xlink">
    <title>Group 2 Copy 4</title>
    <g id="Page-1" stroke="none" stroke-width="1" fill="none" fill-rule="evenodd">
        <g id="Core_Demo---styleguide" transform="translate(-319.000000, -413.000000)" fill-rule="nonzero">
            <g id="Group-3" transform="translate(319.840000, 413.600000)">
                <path d="M22.38,45 C25.5,45 28.5,44.34 31.14,43.26 L24.54,34.56 C23.88,34.74 23.1,34.86 22.38,34.86 C15.54,34.86 10.32,29.28 10.32,22.5 C10.32,15.72 15.54,10.14 22.38,10.14 C29.28,10.14 34.56,15.72 34.56,22.5 C34.56,24.54 34.08,26.46 33.24,28.14 L28.5,21.96 L16.8,21.96 L34.02,44.4 L45.84,44.4 L39.84,36.66 C42.96,32.82 44.82,27.9 44.82,22.5 C44.82,10.08 34.86,0 22.38,0 C9.9,0 0,10.08 0,22.5 C0,34.98 9.9,45 22.38,45 Z" id="Path" fill="#EEB18A"></path>
                <path d="M61.98,0.6 C72.54,0.6 78.48,7.38 78.48,15.66 C78.48,21.3 75.96,26.52 70.62,28.98 L70.62,28.98 L79.74,44.4 L67.92,44.4 L57.6,25.56 L57.6,44.4 L47.16,44.4 L47.16,0.6 Z M61.2,10.2 L57.6,10.2 L57.6,21.72 L61.2,21.72 C65.64,21.72 67.86,18.84 67.86,15.78 C67.86,12.18 65.58,10.2 61.2,10.2 L61.2,10.2 Z" id="Combined-Shape" fill="#EEB18A"></path>
                <path d="M47.38,40 C59.86,40 69.82,50.08 69.82,62.5 C69.82,74.98 59.98,85 47.38,85 C34.9,85 25,74.98 25,62.5 C25,50.08 34.9,40 47.38,40 Z M47.38,50.26 C40.6,50.26 35.56,55.78 35.56,62.5 C35.56,69.16 40.54,74.68 47.38,74.68 C54.28,74.68 59.32,69.16 59.32,62.5 C59.32,55.78 54.16,50.26 47.38,50.26 Z" id="Combined-Shape" fill="#FFFFFF"></path>
                <polygon id="Path" fill="#FFFFFF" points="76.6 84.4 76.6 58.18 93.16 84.4 103.54 84.4 103.54 40.6 93.16 40.6 93.16 65.56 77.32 40.6 66.16 40.6 66.16 84.4"></polygon>
            </g>
        </g>
    </g>
</svg>